# xmcd CD database file
#
# Track frame offsets:
#	150
#	14772
#	29212
#	43564
#	58382
#	71467
#	87455
#	104137
#	125935
#	142695
#	156760
#	173782
#	187127
#	200882
#	217587
#	231700
#	246525
#	261305
#
# Disc length: 3697 seconds
#
# Revision: 0
# Processed by: cddbd v1.4b41PL2 Copyright (c) Steve Scherf et al.
# Submitted via: Feurio! 1.61 - http://www.feurio.com
#
DISCID=290e6f12
DTITLE=Various Artist - The 70´s
DYEAR=1900
DGENRE=
TTITLE0=Anita Ward - Ring My Bell
TTITLE1=KC and Shunshine Band - Get Down Tonight
TTITLE2=The Sweet - Little Willie
TTITLE3=Tina Charles - Dr. Love
TTITLE4=Mud - Oh Boy
TTITLE5=The Rubettes - Tonight
TTITLE6=The Les Humphries Singers - Mama Loo
TTITLE7=Mungo Jerry - Baby Jump
TTITLE8=Jose Feliciano - Angela
TTITLE9=The New Seekers - Look What They Have Done To My Song Ma
TTITLE10=The Fortunes - Seasons In The Sun
TTITLE11=Aretha Franklin - Don´t Play That Song
TTITLE12=Peoples Choice - Do It Anyway You Wanna
TTITLE13=Paul Young and The Q-Tips - Some Kind Of Wonderful
TTITLE14=Barry Blue - Dancin´ on A Saturday Night
TTITLE15=The Brotherhood Of Man - Angelo
TTITLE16=John Travolta - Greased Lightnin´
TTITLE17=The Jimmy Castor Bunch - Troglodyte
EXTD=
EXTT0=
EXTT1=
EXTT2=
EXTT3=
EXTT4=
EXTT5=
EXTT6=
EXTT7=
EXTT8=
EXTT9=
EXTT10=
EXTT11=
EXTT12=
EXTT13=
EXTT14=
EXTT15=
EXTT16=
EXTT17=
PLAYORDER=
